<svg xmlns="http://www.w3.org/2000/svg" xmlns:xlink="http://www.w3.org/1999/xlink" version="1.1" x="0px" y="0px" viewBox="0 0 100 125" enable-background="new 0 0 100 100" xml:space="preserve"><path d="M95,49.083h-2.523C91.994,26.36,73.688,8.036,50.972,7.524V5.166h-2v2.36C26.282,8.066,8.005,26.379,7.523,49.083H5.167v2  h2.361C8.095,73.72,26.353,91.95,49,92.475v2.857h2v-2.857C73.647,91.95,91.904,73.72,92.473,51.083H95V49.083z M90.477,49.083h-8  c-0.478-17.2-14.312-31.052-31.505-31.559v-8C72.55,10.037,89.993,27.499,90.477,49.083z M80.473,51.083  C79.911,67.067,66.995,79.956,51,80.475V67.166h-2v13.309c-15.996-0.519-28.911-13.407-29.473-29.392h5.556v-2h-5.56  c0.478-16.052,13.411-29.022,29.448-29.557V33.5h2V19.524c16.063,0.507,29.027,13.488,29.505,29.559h-5.559v2H80.473z M48.972,9.526  v8C31.805,18.061,18,31.901,17.523,49.083h-8C10.006,27.518,27.42,10.067,48.972,9.526z M9.527,51.083h8  C18.089,68.197,31.875,81.956,49,82.475v8C27.491,89.949,10.096,72.582,9.527,51.083z M51,90.475v-8  c17.125-0.519,30.911-14.277,31.473-31.392h8C89.903,72.582,72.51,89.949,51,90.475z M50,35c-12.792,0-22.888,13.827-23.312,14.416  L26.268,50l0.42,0.584C27.112,51.173,37.208,65,50,65s22.889-13.827,23.312-14.416L73.732,50l-0.421-0.584  C72.889,48.827,62.792,35,50,35z M51.275,62.521c-6.933,0-12.573-5.641-12.573-12.574s5.64-12.574,12.573-12.574  c0.193,0,0.383,0.021,0.574,0.029c-4.933,0.564-8.766,4.749-8.766,9.834c0,5.469,4.434,9.903,9.903,9.903  c5.471,0,9.905-4.435,9.905-9.903c0-1.165-0.213-2.277-0.583-3.314c0.981,1.791,1.542,3.843,1.542,6.025  C63.851,56.88,58.209,62.521,51.275,62.521z M61.13,42.159c0.131,0.423,0.221,0.865,0.221,1.333c0,2.551-2.068,4.62-4.62,4.62  c-2.551,0-4.619-2.069-4.619-4.62c0-2.551,2.068-4.62,4.619-4.62c0.204,0,0.399,0.032,0.597,0.058  C58.802,39.743,60.091,40.847,61.13,42.159z M28.758,50c1.453-1.844,6.312-7.595,12.702-10.795  c-2.916,2.667-4.758,6.488-4.758,10.742c0,4.379,1.95,8.304,5.018,10.978C35.205,57.751,30.231,51.867,28.758,50z M63.727,57.483  c1.339-2.202,2.124-4.776,2.124-7.537c0-2.669-0.733-5.165-1.991-7.318c3.693,2.897,6.368,6.087,7.382,7.373  C70.216,51.304,67.49,54.558,63.727,57.483z"/><text x="0" y="115" fill="#000000" font-size="5px" font-weight="bold" font-family="'Helvetica Neue', Helvetica, Arial-Unicode, Arial, Sans-serif">Created by Aenne Brielmann</text><text x="0" y="120" fill="#000000" font-size="5px" font-weight="bold" font-family="'Helvetica Neue', Helvetica, Arial-Unicode, Arial, Sans-serif">from the Noun Project</text></svg>